Coordinates
version=1
nRows=14
nColumns=24
inDegrees=yes

Units are S.I. units (second, meters, Newtons, ...)
Angles are in degrees.

endheader
time	pelvis_tilt	pelvis_list	pelvis_rotation	pelvis_tx	pelvis_ty	pelvis_tz	hip_flexion_r	hip_adduction_r	hip_rotation_r	knee_angle_r	ankle_angle_r	subtalar_angle_r	mtp_angle_r	hip_flexion_l	hip_adduction_l	hip_rotation_l	knee_angle_l	ankle_angle_l	subtalar_angle_l	mtp_angle_l	lumbar_extension	lumbar_bending	lumbar_rotation
      4.18000000	     -3.96625313	      4.02030994	     -3.24348833	     -1.36552626	     -0.00311731	     -0.39179032	     29.04010126	     -6.23230039	     -4.93614332	    -45.94553857	     -0.92022745	    -10.34079504	     13.64980317	     -3.33726732	      9.23101753	     -4.97057975	     -4.00875265	      7.91684603	     -6.06467200	      7.80787007	      0.18600642	     -3.96656331	     -1.20153193
      4.18500000	     -4.04408468	      4.00543036	     -2.96957441	     -1.35979052	     -0.00360734	     -0.39216086	     29.33132150	     -6.22340339	     -5.26434894	    -44.44802742	     -0.62140779	     -9.84649621	     13.88846411	     -3.75287740	      9.24707254	     -4.98125002	     -3.80615442	      8.04957897	     -5.78699145	      8.04099291	      0.18101636	     -3.94289238	     -1.56156612
      4.19000000	     -3.99892253	      3.93862655	     -2.70595396	     -1.35399675	     -0.00400450	     -0.39247346	     29.43313166	     -6.15537546	     -5.60581092	    -42.86460139	     -0.41830510	     -9.41794233	     14.16997489	     -4.31073747	      9.20477361	     -5.08954047	     -3.59937230	      8.22300017	     -5.38413160	      8.41239690	      0.04739280	     -3.87323657	     -1.90136499
      4.19500000	     -3.93529630	      3.87251717	     -2.46108727	     -1.34817657	     -0.00445011	     -0.39272316	     29.49398637	     -6.06813800	     -5.90685753	    -41.24261991	     -0.29081310	     -9.01328254	     14.49217422	     -4.87997527	      9.15869229	     -5.26653665	     -3.40732210	      8.39744262	     -4.94460425	      8.93082644	     -0.10381121	     -3.80957656	     -2.22654271
      4.20000000	     -3.83181957	      3.75521755	     -2.31409166	     -1.34228488	     -0.00490093	     -0.39278448	     29.48003543	     -5.85847321	     -6.10636437	    -39.53411203	     -0.41375701	     -8.78197364	     15.18639047	     -5.50460272	      9.05104126	     -5.64361646	     -3.16802290	      8.45287970	     -4.44346391	     10.31215815	     -0.28352167	     -3.69484124	     -2.36948720
      4.20500000	     -3.79813796	      3.72030906	     -2.04862080	     -1.33645765	     -0.00551003	     -0.39297428	     29.53936515	     -5.79473479	     -6.34958949	    -37.87509522	     -0.36951554	     -8.32920971	     15.51510188	     -6.01778227	      9.02457666	     -5.75488037	     -3.01753662	      8.57389389	     -4.09665603	     11.08485633	     -0.40539621	     -3.67505334	     -2.73175629
      4.21000000	     -3.80247815	      3.70406077	     -1.78667939	     -1.33065175	     -0.00618288	     -0.39319845	     29.63971837	     -5.76238232	     -6.63245793	    -36.22417642	     -0.36037930	     -7.81581133	     15.63370562	     -6.46394977	      9.02357195	     -5.88953875	     -2.91815823	      8.74412460	     -3.77235565	     11.44348201	     -0.49505400	     -3.66581200	     -3.07001872
      4.21500000	     -3.73937363	      3.62567906	     -1.55968840	     -1.32475090	     -0.00681235	     -0.39331821	     29.61081076	     -5.63843871	     -6.89628265	    -34.50323982	     -0.39828527	     -7.35498817	     15.74234621	     -6.98868478	      8.94989690	     -6.05660146	     -2.82636910	      8.96391135	     -3.41791358	     11.82965210	     -0.64244988	     -3.59812134	     -3.33838992
      4.22000000	     -3.66743563	      3.52459600	     -1.36562294	     -1.31886649	     -0.00743092	     -0.39337849	     29.54772418	     -5.47301755	     -7.13338614	    -32.74854568	     -0.52856645	     -6.87790378	     15.85259828	     -7.50727298	      8.84853105	     -6.23651617	     -2.76011184	      9.17091879	     -3.09325827	     12.21951188	     -0.80492344	     -3.50955114	     -3.57781839
      4.22500000	     -3.57834766	      3.39728901	     -1.19002752	     -1.31301733	     -0.00802796	     -0.39340426	     29.43429410	     -5.27338834	     -7.36307238	    -30.95684960	     -0.72393036	     -6.37175181	     15.99416169	     -8.01997882	      8.71710918	     -6.42323587	     -2.73362269	      9.37884014	     -2.81517862	     12.60182845	     -0.99518383	     -3.39301311	     -3.81051724
      4.23000000	     -3.48955053	      3.24251401	     -1.03479925	     -1.30717081	     -0.00862318	     -0.39338968	     29.28627006	     -5.03981630	     -7.60495493	    -29.12920378	     -0.95268587	     -5.82141611	     16.18790191	     -8.51318343	      8.55336905	     -6.59311016	     -2.74296613	      9.59352425	     -2.59687007	     12.93856825	     -1.18781402	     -3.24842034	     -4.00813127
      4.23500000	     -3.40350748	      3.06866252	     -0.89674911	     -1.30133379	     -0.00921167	     -0.39334990	     29.11265908	     -4.79131860	     -7.90038091	    -27.28068447	     -1.20003155	     -5.18660869	     16.42311721	     -8.98273647	      8.36646112	     -6.73951733	     -2.79102002	      9.81102161	     -2.42849730	     13.18839766	     -1.38051453	     -3.08332463	     -4.18031080
      4.24000000	     -3.32070629	      2.88339011	     -0.76949935	     -1.29548683	     -0.00981208	     -0.39328495	     28.90846208	     -4.53313153	     -8.23034204	    -25.41003919	     -1.43762220	     -4.46478728	     16.70852116	     -9.43037101	      8.16617506	     -6.87465864	     -2.87306149	     10.03783155	     -2.31718073	     13.34832163	     -1.57143204	     -2.90520686	     -4.32294337
      4.24500000	     -3.21173385	      2.68426527	     -0.64977259	     -1.28959477	     -0.01038184	     -0.39318057	     28.62880492	     -4.26559676	     -8.61942080	    -23.50031241	     -1.67020589	     -3.64062331	     17.12238404	     -9.89913917	      7.94366619	     -6.98391945	     -2.97632546	     10.26236077	     -2.21169172	     13.43077144	     -1.78580485	     -2.71534537	     -4.46812145
